<svg width="64" height="64" xmlns="http://www.w3.org/2000/svg">

 <g>
  <title>background</title>
  <rect fill="none" id="canvas_background" height="402" width="582" y="-1" x="-1"/>
 </g>
 <g>
  <title>Layer 1</title>
  <circle fill="#f7a90b" id="svg_5" r="2.5" cy="29.9" cx="38.7" class="st19"/>
  <polygon fill="#ffffff" id="svg_6" points="37.4,32.2 36.4,31.2 32.7,34.9 32.7,20.7 31.3,20.7 31.3,31.5 27.6,27.8 26.6,28.9 31.3,33.5     31.3,39.1 32.7,39.1 32.7,36.9   " class="st3"/>
  <circle fill="#00a8ea" id="svg_8" r="2.5" cy="26.6" cx="25.3" class="st21"/>
  <path fill="#00bf5f" id="svg_10" d="m37.5,56l-11,0c-2.1,0 -4,-1.5 -4.4,-3.6l-2.6,-9.8l25,0l-2.6,9.8c-0.4,2.1 -2.3,3.6 -4.4,3.6z" class="st40"/>
  <path fill="#eaa360" id="svg_12" d="m45.3,42.7l-26.6,0c-1.4,0 -2.5,-1.1 -2.5,-2.5l0,0c0,-1.4 1.1,-2.5 2.5,-2.5l26.7,0c1.4,0 2.5,1.1 2.5,2.5l0,0c-0.1,1.3 -1.2,2.5 -2.6,2.5z" class="st31"/>
  <rect fill="#cade49" id="svg_16" y="8" x="19.6" width="24.9" height="14.8" class="st65"/>
  <rect fill="#aad643" id="svg_19" y="10.3" x="21.9" width="20.3" height="10.1" class="st67"/>
  <ellipse fill="#82c736" id="svg_21" ry="3.9" rx="2.9" cy="15.4" cx="32.1" class="st68"/>
  <path fill="#82c736" id="svg_24" d="m25.2,10.3c0,1.8 -1.4,3.2 -3.2,3.2l0,0l0,-3.2l3.2,0z" class="st68"/>
  <path fill="#82c736" id="svg_27" d="m42.2,10.3l0,3.2c-1.8,0 -3.2,-1.4 -3.2,-3.2l3.2,0z" class="st68"/>
  <path fill="#82c736" id="svg_30" d="m25.2,20.5l-3.2,0l0,-3.2l0,0c1.7,-0.1 3.2,1.4 3.2,3.2z" class="st68"/>
  <path fill="#82c736" id="svg_33" d="m42.2,17.2l0,3.2l-3.2,0c0,-1.7 1.4,-3.2 3.2,-3.2z" class="st68"/>
  <path fill="#ffffff" id="svg_37" d="m33.6,15.8c-0.1,-0.2 -0.3,-0.6 -1.3,-0.8l0,-1.3c0.3,0.1 0.4,0.3 0.5,0.5c0.1,0.2 0.2,0.3 0.4,0.3c0.1,0 0.8,-0.2 0.1,-1c-0.1,-0.1 -0.3,-0.4 -1,-0.4l0,-0.5l-0.4,0l0,0.5c-1.2,0.1 -1.3,0.9 -1.3,1.3c0,1 1,1.2 1.3,1.3l0,1.4c-0.5,-0.1 -0.6,-0.6 -0.7,-0.8c-0.1,-0.3 -0.2,-0.3 -0.3,-0.3c-0.3,0 -0.4,0.3 -0.4,0.4c0,0.1 0.1,0.7 0.8,1.1c0.2,0.1 0.4,0.1 0.6,0.2l0,0.5l0.4,0l0,-0.5c0.3,0 0.5,-0.1 0.8,-0.2c0.5,-0.4 0.7,-1.1 0.5,-1.7zm-1.7,-1c-0.3,-0.1 -0.5,-0.2 -0.5,-0.6c0,-0.2 0.1,-0.5 0.5,-0.6l0,1.2zm0.4,2.3l0,-1.3c0.6,0.2 0.6,0.5 0.6,0.7c0,0.1 0,0.5 -0.6,0.6z" class="st3"/>
  <circle fill="#82c736" id="svg_39" r="0.7" cy="15.4" cx="27.3" class="st68"/>
  <circle fill="#82c736" id="svg_40" r="0.7" cy="15.4" cx="36.8" class="st68"/>
  <path fill="#ffffff" opacity="0.3" id="svg_41" d="m24.3,52.4l-2.6,-9.8l-2.2,0l2.6,9.8c0.4,2.1 2.2,3.6 4.4,3.6l2.2,0c-2.2,0 -4,-1.5 -4.4,-3.6z" class="st69"/>
  <path fill="#231f20" opacity="0.1" id="svg_42" d="m42.4,42.7l-2.6,9.8c-0.4,2.1 -2.2,3.6 -4.4,3.6l2.2,0c2.1,0 4,-1.5 4.4,-3.6l2.6,-9.8l-2.2,0z" class="st5"/>
  <circle opacity="0.3" fill="#ffffff" id="svg_44" r="1.5" cy="29.2" cx="38" class="st3"/>
  <circle opacity="0.3" fill="#ffffff" id="svg_46" r="1.5" cy="25.9" cx="24.6" class="st3"/>
 </g>
</svg>